<svg width="32" height="32" viewBox="0 0 32 32" fill="none" xmlns="http://www.w3.org/2000/svg">
  <!-- Modern Background with Gradient -->
  <defs>
    <radialGradient id="bg-gradient" cx="50%" cy="30%" r="70%">
      <stop offset="0%" stop-color="#10b981"/>
      <stop offset="100%" stop-color="#059669"/>
    </radialGradient>
    <linearGradient id="accent-gradient" x1="0%" y1="0%" x2="100%" y2="100%">
      <stop offset="0%" stop-color="#34d399"/>
      <stop offset="100%" stop-color="#6366f1"/>
    </linearGradient>
    <linearGradient id="form-gradient" x1="0%" y1="0%" x2="100%" y2="100%">
      <stop offset="0%" stop-color="#ffffff"/>
      <stop offset="100%" stop-color="#f8fafc"/>
    </linearGradient>
  </defs>
  
  <!-- Main background circle -->
  <circle cx="16" cy="16" r="16" fill="url(#bg-gradient)"/>
  
  <!-- Survey form representation -->
  <rect x="6" y="6" width="20" height="20" rx="3" fill="url(#form-gradient)" opacity="0.95"/>
  
  <!-- Header bar -->
  <rect x="8" y="8" width="16" height="2.5" rx="1.25" fill="url(#accent-gradient)"/>
  
  <!-- Survey items with modern Material Design style -->
  <g opacity="0.85">
    <!-- Question 1 - Completed -->
    <rect x="8" y="13" width="11" height="1.8" rx="0.9" fill="#374151"/>
    <circle cx="21" cy="13.9" r="1.8" fill="#10b981"/>
    <path d="m19.5 13.9 0.7 0.7 1.3-1.3" stroke="white" stroke-width="0.8" stroke-linecap="round" stroke-linejoin="round"/>
    
    <!-- Question 2 - Pending -->
    <rect x="8" y="17" width="9" height="1.8" rx="0.9" fill="#374151"/>
    <circle cx="19" cy="17.9" r="1.8" fill="none" stroke="#d1d5db" stroke-width="1.2"/>
    
    <!-- Question 3 - In Progress -->
    <rect x="8" y="21" width="7" height="1.8" rx="0.9" fill="#374151"/>
    <circle cx="17" cy="21.9" r="1.8" fill="#fbbf24"/>
    <rect x="15.5" y="20.4" width="3" height="3" rx="0.3" fill="white" opacity="0.8"/>
  </g>
  
  <!-- Subtle accent elements -->
  <circle cx="25" cy="9" r="1.5" fill="#fbbf24" opacity="0.6"/>
  <circle cx="25" cy="9" r="0.8" fill="#f59e0b"/>
  
  <!-- Small data visualization element -->
  <g opacity="0.4">
    <rect x="23" y="22" width="1" height="3" fill="#34d399"/>
    <rect x="25" y="20" width="1" height="5" fill="#6366f1"/>
    <rect x="27" y="21" width="1" height="4" fill="#fbbf24"/>
  </g>
</svg>
